{"title":"Haunting.of.the.Innocent.2014.DVDRiP.XViD-FiRE","uid":9573998,"size":737438797,"categoryP":"video","categoryS":"movies","magnet":"?xt=urn:btih:99ff349167e518b7814023c9a35eace7df72081c&amp;dn=Haunting.of.the.Innocent.2014.DVDRiP.XViD-FiRE&amp;tr=udp%3A%2F%2Ftracker.openbittorrent.com%3A80&amp;tr=udp%3A%2F%2Fopen.demonii.com%3A1337&amp;tr=udp%3A%2F%2Ftracker.coppersurfer.tk%3A6969&amp;tr=udp%3A%2F%2Fexodus.desync.com%3A6969","seeders":4,"leechers":3,"uploader":"Acesn8s","files":-1,"time":1391673133,"description":"Haunting.of.the.Innocent.2014.DVDRiP.XViD-FiRE\n\n**********************************************************************************\n\nFormat                                   : AVI\nFormat/Info                              : Audio Video Interleave\nFile size                                : 698 MiB\nDuration                                 : 1h 40mn\nOverall bit rate                         : 969 Kbps\nWriting application                      : VirtualDubMod 1.5.10.2 (build 2542/release)\nWriting library                          : VirtualDubMod build 2542/release\n\n**********************************************************************************\n\nVideo\n\nID                                       : 0\nFormat                                   : MPEG-4 Visual\nFormat profile                           : Advanced Simple@L5\nFormat settings, BVOP                    : 2\nFormat settings, QPel                    : No\nFormat settings, GMC                     : No warppoints\nFormat settings, Matrix                  : Default (H.263)\nMuxing mode                              : Packed bitstream\nCodec ID                                 : XVID\nCodec ID/Hint                            : XviD\nDuration                                 : 1h 40mn\nBit rate                                 : 848 Kbps\nWidth                                    : 656 pixels\nHeight                                   : 352 pixels\nDisplay aspect ratio                     : 1.85:1\nFrame rate                               : 23.976 fps\nColor space                              : YUV\nChroma subsampling                       : 4:2:0\nBit depth                                : 8 bits\nScan type                                : Progressive\nCompression mode                         : Lossy\nBits/(Pixel*Frame)                       : 0.153\nStream size                              : 611 MiB (87%)\nWriting library                          : XviD 65\n\n**********************************************************************************\n\nAudio\n\nID                                       : 1\nFormat                                   : MPEG Audio\nFormat version                           : Version 1\nFormat profile                           : Layer 3\nMode                                     : Joint stereo\nMode extension                           : MS Stereo\nCodec ID                                 : 55\nCodec ID/Hint                            : MP3\nDuration                                 : 1h 40mn\nBit rate mode                            : Constant\nBit rate                                 : 112 Kbps\nChannel(s)                               : 2 channels\nSampling rate                            : 48.0 KHz\nCompression mode                         : Lossy\nStream size                              : 80.7 MiB (12%)\nAlignment                                : Aligned on interleaves\nInterleave, duration                     : 42 ms (1.00 video frame)\nInterleave, preload duration             : 504 ms\nWriting library                          : LAME3.97 \nEncoding settings                        : -m j -V 4 -q 2 -lowpass 17 -b 112\nSource                                   : Retail DVD\n\n**********************************************************************************\n\nGenre: \n\nThriller   \n\nActors:\n\nJudd Nelson, Jessica Morris, Hannah Cowley  \n\nPlot: \n\nTom and Brenda have the perfect life but when Brenda is violently attacked in \nthe comfort of their home, their perfect lives are thrown into chaos and fear. \n\n**********************************************************************************\n\nIMDb: \n  &lt;a href=&quot;\nhttp://www.imdb.com/title/tt2554714/&quot; rel=&quot;nofollow&quot; target=&quot;_NEW&quot;&gt;\nhttp://www.imdb.com/title/tt2554714/&lt;/a&gt;\n\n**********************************************************************************\n\nScreens: \n &lt;a href=&quot;\nhttp://img.acianetmedia.com/i/UbOPY.jpg&quot; rel=&quot;nofollow&quot; target=&quot;_NEW&quot;&gt;\nhttp://img.acianetmedia.com/i/UbOPY.jpg&lt;/a&gt;\n &lt;a href=&quot;\nhttp://img.acianetmedia.com/i/Ik0Vu.jpg&quot; rel=&quot;nofollow&quot; target=&quot;_NEW&quot;&gt;\nhttp://img.acianetmedia.com/i/Ik0Vu.jpg&lt;/a&gt;\n &lt;a href=&quot;\nhttp://img.acianetmedia.com/i/DiwLR.jpg&quot; rel=&quot;nofollow&quot; target=&quot;_NEW&quot;&gt;\nhttp://img.acianetmedia.com/i/DiwLR.jpg&lt;/a&gt;\n &lt;a href=&quot;\nhttp://img.acianetmedia.com/i/dcRPh.jpg&quot; rel=&quot;nofollow&quot; target=&quot;_NEW&quot;&gt;\nhttp://img.acianetmedia.com/i/dcRPh.jpg&lt;/a&gt;\n &lt;a href=&quot;\nhttp://img.acianetmedia.com/i/7ke2Z.jpg&quot; rel=&quot;nofollow&quot; target=&quot;_NEW&quot;&gt;\nhttp://img.acianetmedia.com/i/7ke2Z.jpg&lt;/a&gt;","torrent":{"xt":"urn:btih:99ff349167e518b7814023c9a35eace7df72081c","amp;dn":"Haunting.of.the.Innocent.2014.DVDRiP.XViD-FiRE","amp;tr":["udp%3A%2F%2Ftracker.openbittorrent.com%3A80","udp%3A%2F%2Fopen.demonii.com%3A1337","udp%3A%2F%2Ftracker.coppersurfer.tk%3A6969","udp%3A%2F%2Fexodus.desync.com%3A6969"],"infoHash":"99ff349167e518b7814023c9a35eace7df72081c","infoHashBuffer":{"type":"Buffer","data":[153,255,52,145,103,229,24,183,129,64,35,201,163,94,172,231,223,114,8,28]},"announce":[],"urlList":[]}}